<svg xmlns="http://www.w3.org/2000/svg" version="1.1" xmlns:xlink="http://www.w3.org/1999/xlink" xmlns:svgjs="http://svgjs.dev/svgjs" viewBox="0 0 800 800"><defs><linearGradient x1="50%" y1="0%" x2="50%" y2="100%" id="vvvortex-grad"><stop stop-color="hsl(215, 100%, 67%)" stop-opacity="1" offset="0%"></stop><stop stop-color="hsl(239, 88%, 32%)" stop-opacity="1" offset="100%"></stop></linearGradient></defs><g stroke="url(#vvvortex-grad)" fill="none" stroke-linecap="round"><circle r="363" cx="400" cy="400" stroke-width="11" stroke-dasharray="18 39" stroke-dashoffset="25" transform="rotate(140, 400, 400)" opacity="0.17"></circle><circle r="346.5" cx="400" cy="400" stroke-width="11" stroke-dasharray="23 24" stroke-dashoffset="25" transform="rotate(124, 400, 400)" opacity="0.75"></circle><circle r="330" cx="400" cy="400" stroke-width="10" stroke-dasharray="24 22" stroke-dashoffset="25" transform="rotate(336, 400, 400)" opacity="0.27"></circle><circle r="313.5" cx="400" cy="400" stroke-width="10" stroke-dasharray="41 45" stroke-dashoffset="25" transform="rotate(165, 400, 400)" opacity="0.81"></circle><circle r="297" cx="400" cy="400" stroke-width="10" stroke-dasharray="24 33" stroke-dashoffset="25" transform="rotate(23, 400, 400)" opacity="0.91"></circle><circle r="280.5" cx="400" cy="400" stroke-width="10" stroke-dasharray="53 15" stroke-dashoffset="25" transform="rotate(38, 400, 400)" opacity="0.79"></circle><circle r="264" cx="400" cy="400" stroke-width="9" stroke-dasharray="33 28" stroke-dashoffset="25" transform="rotate(105, 400, 400)" opacity="0.10"></circle><circle r="247.5" cx="400" cy="400" stroke-width="9" stroke-dasharray="55 19" stroke-dashoffset="25" transform="rotate(189, 400, 400)" opacity="0.88"></circle><circle r="231" cx="400" cy="400" stroke-width="9" stroke-dasharray="40 46" stroke-dashoffset="25" transform="rotate(328, 400, 400)" opacity="0.23"></circle><circle r="214.5" cx="400" cy="400" stroke-width="8" stroke-dasharray="37 42" stroke-dashoffset="25" transform="rotate(313, 400, 400)" opacity="0.73"></circle><circle r="198" cx="400" cy="400" stroke-width="8" stroke-dasharray="19 50" stroke-dashoffset="25" transform="rotate(3, 400, 400)" opacity="0.57"></circle><circle r="181.5" cx="400" cy="400" stroke-width="8" stroke-dasharray="44 40" stroke-dashoffset="25" transform="rotate(174, 400, 400)" opacity="0.48"></circle><circle r="165" cx="400" cy="400" stroke-width="8" stroke-dasharray="28 46" stroke-dashoffset="25" transform="rotate(340, 400, 400)" opacity="0.78"></circle><circle r="148.5" cx="400" cy="400" stroke-width="7" stroke-dasharray="33 53" stroke-dashoffset="25" transform="rotate(158, 400, 400)" opacity="0.56"></circle><circle r="132" cx="400" cy="400" stroke-width="7" stroke-dasharray="24 43" stroke-dashoffset="25" transform="rotate(330, 400, 400)" opacity="0.55"></circle><circle r="115.5" cx="400" cy="400" stroke-width="7" stroke-dasharray="48 10" stroke-dashoffset="25" transform="rotate(55, 400, 400)" opacity="0.28"></circle><circle r="99" cx="400" cy="400" stroke-width="6" stroke-dasharray="31 45" stroke-dashoffset="25" transform="rotate(326, 400, 400)" opacity="0.85"></circle><circle r="82.5" cx="400" cy="400" stroke-width="6" stroke-dasharray="22 12" stroke-dashoffset="25" transform="rotate(222, 400, 400)" opacity="0.28"></circle><circle r="66" cx="400" cy="400" stroke-width="6" stroke-dasharray="44 18" stroke-dashoffset="25" transform="rotate(199, 400, 400)" opacity="0.08"></circle><circle r="49.5" cx="400" cy="400" stroke-width="6" stroke-dasharray="50 34" stroke-dashoffset="25" transform="rotate(40, 400, 400)" opacity="0.76"></circle><circle r="33" cx="400" cy="400" stroke-width="5" stroke-dasharray="44 20" stroke-dashoffset="25" transform="rotate(10, 400, 400)" opacity="0.58"></circle><circle r="16.5" cx="400" cy="400" stroke-width="5" stroke-dasharray="12 24" stroke-dashoffset="25" transform="rotate(62, 400, 400)" opacity="0.81"></circle></g></svg>